<svg xmlns="http://www.w3.org/2000/svg" viewBox="0 0 15 15" width="15" height="15">
	<style>
		tspan { white-space:pre }
		.shp0 { fill: #ffa500 } 
	</style>
	<path id="Layer" class="shp0" d="M14.65,6.24c-0.1,-0.3 -0.36,-0.51 -0.67,-0.54l-4.24,-0.38l-1.68,-3.92c-0.12,-0.29 -0.41,-0.47 -0.72,-0.47c-0.31,0 -0.59,0.19 -0.72,0.47l-1.68,3.92l-4.24,0.38c-0.31,0.03 -0.57,0.24 -0.67,0.54c-0.1,0.3 -0.01,0.62 0.23,0.83l3.2,2.81l-0.95,4.16c-0.07,0.31 0.05,0.62 0.3,0.81c0.14,0.1 0.3,0.15 0.46,0.15c0.14,0 0.28,-0.04 0.4,-0.11l3.66,-2.19l3.66,2.19c0.27,0.16 0.6,0.15 0.86,-0.04c0.25,-0.18 0.37,-0.5 0.3,-0.81l-0.94,-4.16l3.2,-2.81c0.24,-0.21 0.33,-0.53 0.23,-0.83z" />
</svg>